<svg version="1.1" id="Layer_1" xmlns="http://www.w3.org/2000/svg" xmlns:xlink="http://www.w3.org/1999/xlink" x="0px" y="0px"
	 width="100%" viewBox="0 0 512 512" enable-background="new 0 0 512 512" xml:space="preserve">
<path fill="#010101" opacity="1.000000" stroke="none" 
	d="
M513.000000,177.000000 
	C513.000000,289.306030 513.000000,401.112061 513.000000,512.959045 
	C342.402283,512.959045 171.804581,512.959045 1.103429,512.959045 
	C1.103429,342.444000 1.103429,171.887909 1.103429,1.165914 
	C171.666534,1.165914 342.333252,1.165914 513.000000,1.165914 
	C513.000000,59.528721 513.000000,118.014359 513.000000,177.000000 
M238.079681,16.011553 
	C228.762527,16.014864 219.442566,15.876645 210.128967,16.060390 
	C200.374527,16.252836 191.886520,22.673128 190.162338,30.885857 
	C205.790085,30.885857 221.397446,30.885857 237.927307,31.059399 
	C265.856140,31.059399 293.784973,31.059399 321.829071,31.059399 
	C319.074219,22.213932 311.355957,16.173088 301.963226,16.100565 
	C280.979156,15.938542 259.992432,16.122139 238.079681,16.011553 
M240.097351,272.036194 
	C235.503952,272.036194 230.910553,272.036194 225.830231,272.036194 
	C225.830231,277.013336 225.830231,281.450043 225.830215,285.886749 
	C225.830185,300.754242 225.830185,300.754242 241.655670,301.564301 
	C256.458069,302.570038 271.197693,302.635529 285.697815,298.973602 
	C285.697815,289.873932 285.697815,281.125397 285.697815,272.164551 
	C270.607452,272.164551 255.817886,272.164551 240.097351,272.036194 
M192.271408,482.854980 
	C184.625748,482.056458 179.148651,477.601074 174.269257,472.155365 
	C171.585831,469.160400 168.602280,466.971924 164.259445,468.165863 
	C157.929428,479.428864 149.368408,484.415833 139.446014,482.620178 
	C128.604828,480.658264 121.020508,472.212189 120.322830,461.324158 
	C119.678963,451.275879 126.482162,441.795288 136.521591,438.750397 
	C146.731277,435.653931 157.291824,440.143860 162.901581,449.810699 
	C163.616089,451.041962 165.040466,452.747040 166.123550,452.738037 
	C174.517975,452.668304 180.914780,456.563141 185.932297,462.724518 
	C190.656403,468.525635 196.517929,468.545868 202.860840,467.575012 
	C202.860840,460.016022 202.860840,452.754364 202.860840,445.111572 
	C197.813126,445.111572 193.016144,445.217255 188.226028,445.080994 
	C183.693130,444.952057 180.909378,442.219513 180.734604,438.067383 
	C180.562805,433.986053 183.215286,430.861176 187.534195,430.247711 
	C189.336411,429.991699 191.179001,430.019989 193.914749,430.105377 
	C196.246506,430.112427 198.594635,429.946899 200.906250,430.166260 
	C204.536545,430.510742 206.666306,429.449341 208.763657,425.990631 
	C211.367065,421.697418 215.212509,417.981689 219.107971,414.716156 
	C221.309448,412.870667 222.091400,411.268677 222.051651,408.577332 
	C221.918839,399.582947 221.838516,390.581024 222.080246,381.591187 
	C222.178909,377.921814 221.275040,375.852142 217.794632,373.890381 
	C208.186203,368.474457 204.512177,356.750549 208.549637,346.610962 
	C212.681335,336.234650 223.384995,330.590332 234.463135,332.946136 
	C245.008530,335.188629 252.535065,344.940430 251.951309,355.932220 
	C251.420441,365.928101 245.713959,372.373413 237.261841,376.266174 
	C237.261841,386.930542 237.261841,397.199005 237.261841,407.593872 
	C249.777283,407.593872 262.029022,407.593872 274.627167,407.593872 
	C274.843628,402.876831 275.766113,399.024048 270.004120,396.029877 
	C261.302612,391.508240 257.822906,380.675873 260.514099,371.371033 
	C263.267914,361.849609 271.741760,355.207947 281.429291,354.978027 
	C291.537384,354.738098 300.486511,360.942230 303.616119,370.359406 
	C306.675903,379.566406 303.686493,390.618683 295.318756,395.458405 
	C290.104889,398.473999 289.170959,402.043884 289.816956,407.039734 
	C290.098358,409.215668 289.964996,411.973907 291.226654,413.400726 
	C296.091949,418.903076 301.444458,423.974670 307.627808,430.231171 
	C319.481964,428.084167 330.904449,431.882507 339.515137,442.968903 
	C339.615875,443.098541 339.750641,443.205170 339.881104,443.307800 
	C343.771454,446.367340 346.789917,445.793091 349.314056,441.514984 
	C354.936768,431.985199 366.270935,427.873047 376.500885,431.651367 
	C386.028351,435.170288 391.720520,443.903046 391.208527,454.215515 
	C390.728333,463.888519 383.769226,472.299133 374.269073,474.688232 
	C364.729767,477.087128 354.515320,472.705780 349.315887,464.162079 
	C348.391205,462.642639 346.839569,460.358917 345.590393,460.367279 
	C336.951538,460.424927 330.590454,456.238586 325.424683,450.003967 
	C320.766113,444.381500 315.003357,444.630035 308.896912,445.525574 
	C308.896912,453.128601 308.896912,460.368713 308.896912,467.394653 
	C309.365234,467.690491 309.505280,467.855927 309.646637,467.857025 
	C313.811035,467.889893 317.975952,467.877777 322.140015,467.932556 
	C327.674408,468.005371 330.920868,470.673218 331.032715,475.173462 
	C331.150513,479.914673 327.818268,482.829132 322.055756,482.908875 
	C317.608246,482.970398 313.159241,482.921112 308.873352,482.921112 
	C308.873352,488.260681 308.873352,493.002716 308.873352,498.001282 
	C318.484253,498.001282 327.800110,498.213593 337.100647,497.927032 
	C343.354401,497.734375 348.455109,498.654938 349.260895,505.846619 
	C356.128418,505.846619 362.434692,505.846619 368.696533,505.846619 
	C370.402924,499.544800 372.280518,498.038757 378.473236,498.007874 
	C384.470642,497.977966 390.468384,498.016663 396.465881,497.997375 
	C403.930573,497.973328 406.461914,495.587830 406.474609,488.235718 
	C406.516876,463.745819 406.799377,439.250824 406.417419,414.766754 
	C405.561310,359.889496 369.894989,316.047058 317.012360,304.726501 
	C313.969757,304.075226 310.294861,305.159729 307.195862,306.242493 
	C300.650696,308.529327 294.490265,312.153595 287.819244,313.799011 
	C268.994446,318.442108 249.867218,317.828308 230.028244,315.146912 
	C220.783218,313.606049 212.015320,310.863190 203.912033,305.926575 
	C201.725891,304.594696 198.486206,303.895844 195.984833,304.340210 
	C149.477737,312.602264 110.112816,353.550659 106.455658,400.356171 
	C104.128082,430.145294 105.399132,460.219940 105.211975,490.167542 
	C105.181610,495.027527 108.277924,497.948364 113.126839,497.954041 
	C139.753601,497.985291 166.380508,497.885620 193.918091,497.982941 
	C196.857071,497.982941 199.796051,497.982941 202.761383,497.982941 
	C202.761383,492.721252 202.761383,487.871765 202.761383,483.087280 
	C199.281250,483.087280 196.142670,483.087280 192.271408,482.854980 
M221.091873,46.106251 
	C199.945877,46.097557 178.797546,45.886513 157.654434,46.129559 
	C128.908798,46.460003 105.890968,68.368599 105.365875,97.093369 
	C104.702576,133.378525 104.741058,169.692810 105.354408,205.979675 
	C105.816071,233.292694 127.590935,255.884567 154.098404,256.744263 
	C177.378983,257.499329 200.704987,256.854156 224.936813,256.972870 
	C267.099884,256.981873 309.262939,257.002777 351.425995,256.996033 
	C383.724396,256.990875 406.259064,234.847855 406.427826,202.599670 
	C406.605713,168.603485 406.595581,134.605026 406.430939,100.608711 
	C406.274811,68.369400 383.726379,46.108543 351.491547,46.084999 
	C309.995087,46.054684 268.498566,46.074993 227.002090,46.085957 
	C225.340836,46.086395 223.679611,46.214737 221.091873,46.106251 
M218.914062,439.680084 
	C218.644287,441.984100 218.150650,444.287201 218.140778,446.592316 
	C218.072372,462.568665 218.097031,478.545502 218.121140,494.522125 
	C218.122787,495.620758 218.361755,496.719025 218.489182,497.807343 
	C243.552185,497.807343 268.304443,497.807343 293.062042,497.807343 
	C293.062042,478.692444 293.634796,459.747803 292.830414,440.861786 
	C292.401550,430.792603 282.534637,423.085907 272.096436,422.834686 
	C262.116730,422.594482 252.127045,422.728821 242.141937,422.760162 
	C230.376343,422.797119 223.395172,427.700012 218.914062,439.680084 
M79.799248,114.005951 
	C66.829987,115.308022 56.854061,121.445076 50.147778,132.640228 
	C48.123684,136.019150 45.858795,138.378937 41.507175,138.242752 
	C40.402100,138.208191 38.401482,139.820282 38.247669,140.883423 
	C37.450695,146.391998 37.118992,151.967911 36.637737,157.378632 
	C44.840351,159.541885 44.830704,159.546417 48.462925,167.277222 
	C49.098866,168.630722 49.795029,169.963577 50.563347,171.246078 
	C58.592579,184.648651 76.521339,192.401993 89.839767,188.264908 
	C89.839767,163.668015 89.839767,139.076935 89.839767,113.988487 
	C86.628799,113.988487 83.675980,113.988487 79.799248,114.005951 
M421.373596,143.499939 
	C421.373596,158.596161 421.373596,173.692383 421.373596,188.852844 
	C438.970367,190.629105 452.817627,185.340134 461.542786,170.345367 
	C469.568207,156.553223 468.740082,142.449539 459.418365,129.500046 
	C450.218170,116.719345 437.145599,112.525833 421.374023,114.294296 
	C421.374023,123.905029 421.374023,133.202484 421.373596,143.499939 
M440.379578,16.468231 
	C439.010864,17.061359 437.553101,17.507210 436.288055,18.271826 
	C428.844299,22.770992 426.806641,32.397549 431.715912,39.564430 
	C436.622772,46.727802 446.343903,48.285892 453.240723,43.014450 
	C458.459167,39.025848 460.515381,32.088406 458.271362,26.041473 
	C455.662689,19.011898 449.728485,15.610497 440.379578,16.468231 
M75.219307,44.010040 
	C83.052620,38.097088 84.935448,29.926689 80.112770,22.775253 
	C75.642754,16.146786 67.238174,14.099098 60.319942,17.952953 
	C53.267681,21.881470 50.503433,30.717888 54.120163,37.771694 
	C58.002739,45.344006 66.024292,47.935646 75.219307,44.010040 
M227.339188,362.067047 
	C232.792999,362.485565 235.979675,360.626007 236.884827,356.496735 
	C237.733505,352.625122 235.438583,348.782532 231.499405,347.700378 
	C227.605728,346.630737 224.683563,348.092194 222.828476,351.562256 
	C220.756470,355.438141 221.970108,358.574188 227.339188,362.067047 
M287.378540,372.017975 
	C281.664581,368.569061 275.989532,370.273010 274.945221,375.819977 
	C274.263275,379.442261 275.293854,382.967957 278.848083,383.924438 
	C281.435822,384.620789 285.229675,384.189667 287.310883,382.661316 
	C290.809845,380.091858 290.570129,376.123688 287.378540,372.017975 
M374.906525,457.181274 
	C376.843658,454.001434 377.170227,450.468750 374.385620,448.054352 
	C372.535400,446.450073 369.018677,445.137085 366.966766,445.828186 
	C364.644867,446.610229 362.022430,449.579376 361.589508,451.970337 
	C361.204498,454.096313 363.057709,457.442139 364.953125,458.979889 
	C367.967163,461.425018 371.533295,460.606079 374.906525,457.181274 
M135.331161,459.668182 
	C136.373642,465.919098 140.145340,469.116577 144.865952,467.568787 
	C148.626038,466.335938 151.184235,463.468567 150.059692,459.668823 
	C149.303558,457.113922 146.787247,454.039337 144.380127,453.240082 
	C139.988968,451.782013 136.757416,454.352539 135.331161,459.668182 
z"/>
<path fill="#F2F4FB" opacity="1.000000" stroke="none" 
	d="
M230.755875,315.516815 
	C249.867218,317.828308 268.994446,318.442108 287.819244,313.799011 
	C294.490265,312.153595 300.650696,308.529327 307.195862,306.242493 
	C310.294861,305.159729 313.969757,304.075226 317.012360,304.726501 
	C369.894989,316.047058 405.561310,359.889496 406.417419,414.766754 
	C406.799377,439.250824 406.516876,463.745819 406.474609,488.235718 
	C406.461914,495.587830 403.930573,497.973328 396.465881,497.997375 
	C390.468384,498.016663 384.470642,497.977966 378.473236,498.007874 
	C372.280518,498.038757 370.402924,499.544800 368.696533,505.846619 
	C362.434692,505.846619 356.128418,505.846619 349.260895,505.846619 
	C348.455109,498.654938 343.354401,497.734375 337.100647,497.927032 
	C327.800110,498.213593 318.484253,498.001282 308.873352,498.001282 
	C308.873352,493.002716 308.873352,488.260681 308.873352,482.921112 
	C313.159241,482.921112 317.608246,482.970398 322.055756,482.908875 
	C327.818268,482.829132 331.150513,479.914673 331.032715,475.173462 
	C330.920868,470.673218 327.674408,468.005371 322.140015,467.932556 
	C317.975952,467.877777 313.811035,467.889893 309.646637,467.857025 
	C309.505280,467.855927 309.365234,467.690491 308.896912,467.394653 
	C308.896912,460.368713 308.896912,453.128601 308.896912,445.525574 
	C315.003357,444.630035 320.766113,444.381500 325.424683,450.003967 
	C330.590454,456.238586 336.951538,460.424927 345.590393,460.367279 
	C346.839569,460.358917 348.391205,462.642639 349.315887,464.162079 
	C354.515320,472.705780 364.729767,477.087128 374.269073,474.688232 
	C383.769226,472.299133 390.728333,463.888519 391.208527,454.215515 
	C391.720520,443.903046 386.028351,435.170288 376.500885,431.651367 
	C366.270935,427.873047 354.936768,431.985199 349.314056,441.514984 
	C346.789917,445.793091 343.771454,446.367340 339.881104,443.307800 
	C339.750641,443.205170 339.615875,443.098541 339.515137,442.968903 
	C330.904449,431.882507 319.481964,428.084167 307.627808,430.231171 
	C301.444458,423.974670 296.091949,418.903076 291.226654,413.400726 
	C289.964996,411.973907 290.098358,409.215668 289.816956,407.039734 
	C289.170959,402.043884 290.104889,398.473999 295.318756,395.458405 
	C303.686493,390.618683 306.675903,379.566406 303.616119,370.359406 
	C300.486511,360.942230 291.537384,354.738098 281.429291,354.978027 
	C271.741760,355.207947 263.267914,361.849609 260.514099,371.371033 
	C257.822906,380.675873 261.302612,391.508240 270.004120,396.029877 
	C275.766113,399.024048 274.843628,402.876831 274.627167,407.593872 
	C262.029022,407.593872 249.777283,407.593872 237.261841,407.593872 
	C237.261841,397.199005 237.261841,386.930542 237.261841,376.266174 
	C245.713959,372.373413 251.420441,365.928101 251.951309,355.932220 
	C252.535065,344.940430 245.008530,335.188629 234.463135,332.946136 
	C223.384995,330.590332 212.681335,336.234650 208.549637,346.610962 
	C204.512177,356.750549 208.186203,368.474457 217.794632,373.890381 
	C221.275040,375.852142 222.178909,377.921814 222.080246,381.591187 
	C221.838516,390.581024 221.918839,399.582947 222.051651,408.577332 
	C222.091400,411.268677 221.309448,412.870667 219.107971,414.716156 
	C215.212509,417.981689 211.367065,421.697418 208.763657,425.990631 
	C206.666306,429.449341 204.536545,430.510742 200.906250,430.166260 
	C198.594635,429.946899 196.246506,430.112427 193.457550,429.548706 
	C193.329514,418.059784 193.623871,407.126343 193.996658,396.195557 
	C194.457336,382.687714 197.296188,369.656830 201.860428,356.955627 
	C207.764603,340.525604 216.748489,326.278931 230.755875,315.516815 
z"/>
<path fill="#93BBE7" opacity="1.000000" stroke="none" 
	d="
M222.018372,46.283485 
	C223.679611,46.214737 225.340836,46.086395 227.002090,46.085957 
	C268.498566,46.074993 309.995087,46.054684 351.491547,46.084999 
	C383.726379,46.108543 406.274811,68.369400 406.430939,100.608711 
	C406.595581,134.605026 406.605713,168.603485 406.427826,202.599670 
	C406.259064,234.847855 383.724396,256.990875 351.425995,256.996033 
	C309.262939,257.002777 267.099884,256.981873 224.293182,256.623566 
	C217.612137,251.193848 211.049683,246.602814 205.708893,240.873047 
	C201.677170,236.547714 199.208054,230.765839 196.486053,225.647186 
	C203.401550,226.085052 209.872757,226.840042 216.347641,226.873016 
	C243.338837,227.010574 270.331238,226.966904 297.322968,226.895370 
	C301.807312,226.883499 306.314697,226.615448 310.770325,226.106094 
	C357.192017,220.799423 387.704865,172.030563 372.391785,127.703545 
	C370.159912,121.242805 368.076172,120.019913 361.088806,120.742294 
	C357.083160,115.227386 353.134521,110.073799 349.323547,104.621750 
	C352.705902,99.236641 352.421875,96.188423 347.878632,92.764374 
	C344.306854,90.072525 340.578094,87.520943 336.670166,85.356453 
	C326.624725,79.792542 315.752136,76.461113 304.297211,76.473572 
	C268.540436,76.512459 232.784134,76.976906 197.047455,76.901047 
	C198.086533,74.461655 199.014313,72.346184 200.140625,70.342300 
	C205.587036,60.652275 213.764984,53.430248 222.018372,46.283485 
z"/>
<path fill="#E7EBF8" opacity="1.000000" stroke="none" 
	d="
M230.392059,315.331848 
	C216.748489,326.278931 207.764603,340.525604 201.860428,356.955627 
	C197.296188,369.656830 194.457336,382.687714 193.996658,396.195557 
	C193.623871,407.126343 193.329514,418.059784 193.001801,429.455566 
	C191.179001,430.019989 189.336411,429.991699 187.534195,430.247711 
	C183.215286,430.861176 180.562805,433.986053 180.734604,438.067383 
	C180.909378,442.219513 183.693130,444.952057 188.226028,445.080994 
	C193.016144,445.217255 197.813126,445.111572 202.860840,445.111572 
	C202.860840,452.754364 202.860840,460.016022 202.860840,467.575012 
	C196.517929,468.545868 190.656403,468.525635 185.932297,462.724518 
	C180.914780,456.563141 174.517975,452.668304 166.123550,452.738037 
	C165.040466,452.747040 163.616089,451.041962 162.901581,449.810699 
	C157.291824,440.143860 146.731277,435.653931 136.521591,438.750397 
	C126.482162,441.795288 119.678963,451.275879 120.322830,461.324158 
	C121.020508,472.212189 128.604828,480.658264 139.446014,482.620178 
	C149.368408,484.415833 157.929428,479.428864 164.261230,468.161377 
	C168.602280,466.971924 171.585831,469.160400 174.269257,472.155365 
	C179.148651,477.601074 184.625748,482.056458 192.636276,483.430817 
	C193.003220,488.614746 193.005280,493.222809 193.007355,497.830902 
	C166.380508,497.885620 139.753601,497.985291 113.126839,497.954041 
	C108.277924,497.948364 105.181610,495.027527 105.211975,490.167542 
	C105.399132,460.219940 104.128082,430.145294 106.455658,400.356171 
	C110.112816,353.550659 149.477737,312.602264 195.984833,304.340210 
	C198.486206,303.895844 201.725891,304.594696 203.912033,305.926575 
	C212.015320,310.863190 220.783218,313.606049 230.392059,315.331848 
z"/>
<path fill="#68A1DD" opacity="1.000000" stroke="none" 
	d="
M196.043457,225.632233 
	C199.208054,230.765839 201.677170,236.547714 205.708893,240.873047 
	C211.049683,246.602814 217.612137,251.193848 223.830246,256.550842 
	C200.704987,256.854156 177.378983,257.499329 154.098404,256.744263 
	C127.590935,255.884567 105.816071,233.292694 105.354408,205.979675 
	C104.741058,169.692810 104.702576,133.378525 105.365875,97.093369 
	C105.890968,68.368599 128.908798,46.460003 157.654434,46.129559 
	C178.797546,45.886513 199.945877,46.097557 221.555115,46.194870 
	C213.764984,53.430248 205.587036,60.652275 200.140625,70.342300 
	C199.014313,72.346184 198.086533,74.461655 196.750000,77.118713 
	C151.988556,85.721153 124.402237,132.965561 139.518478,175.892426 
	C149.001022,202.820831 168.540726,218.893433 196.043457,225.632233 
z"/>
<path fill="#92BBE6" opacity="1.000000" stroke="none" 
	d="
M218.985016,439.274780 
	C223.395172,427.700012 230.376343,422.797119 242.141937,422.760162 
	C252.127045,422.728821 262.116730,422.594482 272.096436,422.834686 
	C282.534637,423.085907 292.401550,430.792603 292.830414,440.861786 
	C293.634796,459.747803 293.062042,478.692444 293.062042,497.807343 
	C268.304443,497.807343 243.552185,497.807343 218.489182,497.807343 
	C218.361755,496.719025 218.122787,495.620758 218.121140,494.522125 
	C218.097031,478.545502 218.072372,462.568665 218.140778,446.592316 
	C218.150650,444.287201 218.644287,441.984100 218.985016,439.274780 
z"/>
<path fill="#4A669F" opacity="1.000000" stroke="none" 
	d="
M80.261200,113.997223 
	C83.675980,113.988487 86.628799,113.988487 89.839767,113.988487 
	C89.839767,139.076935 89.839767,163.668015 89.839767,188.264908 
	C76.521339,192.401993 58.592579,184.648651 50.563347,171.246078 
	C49.795029,169.963577 49.098866,168.630722 48.462925,167.277222 
	C44.830704,159.546417 44.840351,159.541885 36.637737,157.378632 
	C37.118992,151.967911 37.450695,146.391998 38.247669,140.883423 
	C38.401482,139.820282 40.402100,138.208191 41.507175,138.242752 
	C45.858795,138.378937 48.123684,136.019150 50.147778,132.640228 
	C56.854061,121.445076 66.829987,115.308022 80.261200,113.997223 
z"/>
<path fill="#667BA7" opacity="1.000000" stroke="none" 
	d="
M421.373810,142.999939 
	C421.374023,133.202484 421.374023,123.905029 421.374023,114.294296 
	C437.145599,112.525833 450.218170,116.719345 459.418365,129.500046 
	C468.740082,142.449539 469.568207,156.553223 461.542786,170.345367 
	C452.817627,185.340134 438.970367,190.629105 421.373596,188.852844 
	C421.373596,173.692383 421.373596,158.596161 421.373810,142.999939 
z"/>
<path fill="#687DA9" opacity="1.000000" stroke="none" 
	d="
M241.028305,272.164551 
	C255.817886,272.164551 270.607452,272.164551 285.697815,272.164551 
	C285.697815,281.125397 285.697815,289.873932 285.697815,298.973602 
	C271.197693,302.635529 256.458069,302.570038 241.312805,300.888123 
	C240.989395,290.862823 241.008850,281.513672 241.028305,272.164551 
z"/>
<path fill="#F2F4FB" opacity="1.000000" stroke="none" 
	d="
M239.006775,16.164944 
	C259.992432,16.122139 280.979156,15.938542 301.963226,16.100565 
	C311.355957,16.173088 319.074219,22.213932 321.829071,31.059399 
	C293.784973,31.059399 265.856140,31.059399 237.464310,30.540108 
	C237.669800,25.402191 238.338287,20.783567 239.006775,16.164944 
z"/>
<path fill="#FB6C7E" opacity="1.000000" stroke="none" 
	d="
M440.772156,16.352228 
	C449.728485,15.610497 455.662689,19.011898 458.271362,26.041473 
	C460.515381,32.088406 458.459167,39.025848 453.240723,43.014450 
	C446.343903,48.285892 436.622772,46.727802 431.715912,39.564430 
	C426.806641,32.397549 428.844299,22.770992 436.288055,18.271826 
	C437.553101,17.507210 439.010864,17.061359 440.772156,16.352228 
z"/>
<path fill="#F6465D" opacity="1.000000" stroke="none" 
	d="
M74.875145,44.188080 
	C66.024292,47.935646 58.002739,45.344006 54.120163,37.771694 
	C50.503433,30.717888 53.267681,21.881470 60.319942,17.952953 
	C67.238174,14.099098 75.642754,16.146786 80.112770,22.775253 
	C84.935448,29.926689 83.052620,38.097088 74.875145,44.188080 
z"/>
<path fill="#E7EBF8" opacity="1.000000" stroke="none" 
	d="
M238.543228,16.088249 
	C238.338287,20.783567 237.669800,25.402191 237.003052,30.453335 
	C221.397446,30.885857 205.790085,30.885857 190.162338,30.885857 
	C191.886520,22.673128 200.374527,16.252836 210.128967,16.060390 
	C219.442566,15.876645 228.762527,16.014864 238.543228,16.088249 
z"/>
<path fill="#4A669F" opacity="1.000000" stroke="none" 
	d="
M240.562836,272.100372 
	C241.008850,281.513672 240.989395,290.862823 240.946457,300.693329 
	C225.830185,300.754242 225.830185,300.754242 225.830215,285.886749 
	C225.830231,281.450043 225.830231,277.013336 225.830231,272.036194 
	C230.910553,272.036194 235.503952,272.036194 240.562836,272.100372 
z"/>
<path fill="#F66A7C" opacity="1.000000" stroke="none" 
	d="
M226.983429,361.976959 
	C221.970108,358.574188 220.756470,355.438141 222.828476,351.562256 
	C224.683563,348.092194 227.605728,346.630737 231.499405,347.700378 
	C235.438583,348.782532 237.733505,352.625122 236.884827,356.496735 
	C235.979675,360.626007 232.792999,362.485565 226.983429,361.976959 
z"/>
<path fill="#F76B7C" opacity="1.000000" stroke="none" 
	d="
M287.651428,372.291077 
	C290.570129,376.123688 290.809845,380.091858 287.310883,382.661316 
	C285.229675,384.189667 281.435822,384.620789 278.848083,383.924438 
	C275.293854,382.967957 274.263275,379.442261 274.945221,375.819977 
	C275.989532,370.273010 281.664581,368.569061 287.651428,372.291077 
z"/>
<path fill="#F66A7B" opacity="1.000000" stroke="none" 
	d="
M374.655334,457.500916 
	C371.533295,460.606079 367.967163,461.425018 364.953125,458.979889 
	C363.057709,457.442139 361.204498,454.096313 361.589508,451.970337 
	C362.022430,449.579376 364.644867,446.610229 366.966766,445.828186 
	C369.018677,445.137085 372.535400,446.450073 374.385620,448.054352 
	C377.170227,450.468750 376.843658,454.001434 374.655334,457.500916 
z"/>
<path fill="#F2455B" opacity="1.000000" stroke="none" 
	d="
M135.408142,459.300446 
	C136.757416,454.352539 139.988968,451.782013 144.380127,453.240082 
	C146.787247,454.039337 149.303558,457.113922 150.059692,459.668823 
	C151.184235,463.468567 148.626038,466.335938 144.865952,467.568787 
	C140.145340,469.116577 136.373642,465.919098 135.408142,459.300446 
z"/>
<path fill="#F3F5FC" opacity="1.000000" stroke="none" 
	d="
M193.462708,497.906921 
	C193.005280,493.222809 193.003220,488.614746 193.002625,483.546967 
	C196.142670,483.087280 199.281250,483.087280 202.761383,483.087280 
	C202.761383,487.871765 202.761383,492.721252 202.761383,497.982941 
	C199.796051,497.982941 196.857071,497.982941 193.462708,497.906921 
z"/>
<path fill="#F0F2F9" opacity="1.000000" stroke="none" 
	d="
M349.185883,104.920212 
	C353.134521,110.073799 357.083160,115.227386 360.874573,121.023407 
	C356.443878,124.558861 356.797852,128.367126 358.172272,132.702087 
	C370.695435,172.200363 342.693146,211.338745 301.273956,211.827820 
	C270.981506,212.185532 240.678085,212.142380 210.387344,211.720200 
	C203.576630,211.625290 196.798264,209.208145 190.004074,207.400269 
	C190.001389,172.234238 189.978226,137.527939 190.040955,102.821808 
	C190.045670,100.210121 190.662827,97.599541 191.267456,94.728798 
	C198.894058,93.396782 206.237717,91.494926 213.604828,91.399269 
	C241.698395,91.034523 269.800018,91.349991 297.897644,91.212402 
	C312.850494,91.139183 326.453308,94.950058 338.290527,104.238121 
	C341.904510,107.073830 345.372253,107.575661 349.185883,104.920212 
M261.658203,143.872391 
	C257.679169,133.483063 253.724609,123.084267 249.708633,112.709244 
	C248.174011,108.744690 245.208267,106.489601 240.936172,106.493340 
	C236.675064,106.497078 233.680710,108.710434 232.146332,112.689529 
	C222.707214,137.167770 213.262512,161.644012 203.912308,186.156250 
	C202.228104,190.571518 203.929520,194.433701 207.821487,196.076752 
	C211.917603,197.805984 215.881744,196.042770 217.868622,191.402954 
	C219.371078,187.894348 220.453995,184.196457 222.105667,180.766800 
	C222.660461,179.614807 224.379944,178.317368 225.587936,178.296524 
	C236.571548,178.107025 247.559799,178.185364 258.593567,178.185364 
	C260.492889,183.056366 262.114166,187.781326 264.173248,192.307083 
	C265.692383,195.646042 268.851807,197.823425 272.264771,196.318039 
	C274.713898,195.237793 276.858582,192.416351 278.022308,189.862747 
	C278.732452,188.304504 277.573700,185.688507 276.829712,183.707047 
	C271.926575,170.648438 266.908051,157.633148 261.658203,143.872391 
M293.541168,147.499664 
	C293.551331,161.298462 293.472961,175.098190 293.621063,188.895508 
	C293.671021,193.547409 296.902100,196.714523 300.942505,196.767197 
	C304.966888,196.819672 308.082092,193.680298 308.533569,189.079926 
	C308.614502,188.255508 308.588440,187.419205 308.588531,186.588394 
	C308.591125,163.313019 308.591705,140.037643 308.587372,116.762276 
	C308.587189,115.765785 308.611053,114.760811 308.497589,113.774292 
	C307.988434,109.346756 305.111938,106.514679 301.128906,106.458595 
	C296.933014,106.399513 293.719604,109.365669 293.637634,114.082260 
	C293.449921,124.885353 293.555023,135.693542 293.541168,147.499664 
z"/>
<path fill="#030304" opacity="1.000000" stroke="none" 
	d="
M349.323547,104.621758 
	C345.372253,107.575661 341.904510,107.073830 338.290527,104.238121 
	C326.453308,94.950058 312.850494,91.139183 297.897644,91.212402 
	C269.800018,91.349991 241.698395,91.034523 213.604828,91.399269 
	C206.237717,91.494926 198.894058,93.396782 190.895111,94.725067 
	C166.575729,103.789444 151.340500,124.884552 150.389954,150.173019 
	C149.446274,175.278473 166.893387,200.684753 190.005005,207.860031 
	C196.798264,209.208145 203.576630,211.625290 210.387344,211.720200 
	C240.678085,212.142380 270.981506,212.185532 301.273956,211.827820 
	C342.693146,211.338745 370.695435,172.200363 358.172272,132.702087 
	C356.797852,128.367126 356.443878,124.558861 360.931641,121.384727 
	C368.076172,120.019913 370.159912,121.242805 372.391785,127.703545 
	C387.704865,172.030563 357.192017,220.799423 310.770325,226.106094 
	C306.314697,226.615448 301.807312,226.883499 297.322968,226.895370 
	C270.331238,226.966904 243.338837,227.010574 216.347641,226.873016 
	C209.872757,226.840042 203.401550,226.085052 196.486053,225.647186 
	C168.540726,218.893433 149.001022,202.820831 139.518478,175.892426 
	C124.402237,132.965561 151.988556,85.721153 196.730194,77.494049 
	C232.784134,76.976906 268.540436,76.512459 304.297211,76.473572 
	C315.752136,76.461113 326.624725,79.792542 336.670166,85.356453 
	C340.578094,87.520943 344.306854,90.072525 347.878632,92.764374 
	C352.421875,96.188423 352.705902,99.236641 349.323547,104.621758 
z"/>
<path fill="#E7EBF8" opacity="1.000000" stroke="none" 
	d="
M190.004074,207.400269 
	C166.893387,200.684753 149.446274,175.278473 150.389954,150.173019 
	C151.340500,124.884552 166.575729,103.789444 190.622940,94.984711 
	C190.662827,97.599541 190.045670,100.210121 190.040955,102.821808 
	C189.978226,137.527939 190.001389,172.234238 190.004074,207.400269 
z"/>
<path fill="#040404" opacity="1.000000" stroke="none" 
	d="
M261.792664,144.238068 
	C266.908051,157.633148 271.926575,170.648438 276.829712,183.707047 
	C277.573700,185.688507 278.732452,188.304504 278.022308,189.862747 
	C276.858582,192.416351 274.713898,195.237793 272.264771,196.318039 
	C268.851807,197.823425 265.692383,195.646042 264.173248,192.307083 
	C262.114166,187.781326 260.492889,183.056366 258.593567,178.185364 
	C247.559799,178.185364 236.571548,178.107025 225.587936,178.296524 
	C224.379944,178.317368 222.660461,179.614807 222.105667,180.766800 
	C220.453995,184.196457 219.371078,187.894348 217.868622,191.402954 
	C215.881744,196.042770 211.917603,197.805984 207.821487,196.076752 
	C203.929520,194.433701 202.228104,190.571518 203.912308,186.156250 
	C213.262512,161.644012 222.707214,137.167770 232.146332,112.689529 
	C233.680710,108.710434 236.675064,106.497078 240.936172,106.493340 
	C245.208267,106.489601 248.174011,108.744690 249.708633,112.709244 
	C253.724609,123.084267 257.679169,133.483063 261.792664,144.238068 
M241.744354,133.834686 
	C241.253937,133.693024 240.348877,133.388718 240.331650,133.432648 
	C236.506638,143.184937 232.743988,152.961685 228.935257,162.852417 
	C237.163055,162.852417 244.697784,162.852417 252.761154,162.852417 
	C249.052979,153.112198 245.522446,143.838593 241.744354,133.834686 
z"/>
<path fill="#080808" opacity="1.000000" stroke="none" 
	d="
M293.541199,146.999664 
	C293.555023,135.693542 293.449921,124.885353 293.637634,114.082260 
	C293.719604,109.365669 296.933014,106.399513 301.128906,106.458595 
	C305.111938,106.514679 307.988434,109.346756 308.497589,113.774292 
	C308.611053,114.760811 308.587189,115.765785 308.587372,116.762276 
	C308.591705,140.037643 308.591125,163.313019 308.588531,186.588394 
	C308.588440,187.419205 308.614502,188.255508 308.533569,189.079926 
	C308.082092,193.680298 304.966888,196.819672 300.942505,196.767197 
	C296.902100,196.714523 293.671021,193.547409 293.621063,188.895508 
	C293.472961,175.098190 293.551331,161.298462 293.541199,146.999664 
z"/>
<path fill="#EEF0F7" opacity="1.000000" stroke="none" 
	d="
M241.868134,134.199829 
	C245.522446,143.838593 249.052979,153.112198 252.761154,162.852417 
	C244.697784,162.852417 237.163055,162.852417 228.935257,162.852417 
	C232.743988,152.961685 236.506638,143.184937 240.331650,133.432648 
	C240.348877,133.388718 241.253937,133.693024 241.868134,134.199829 
z"/>
</svg>